# xmcd
#
# Track frame offsets: 
#        150
#        15426
#        31676
#        47134
#        62953
#        79701
#        96394
#        112284
#        130474
#        147800
#        160962
#        178237
#        194143
#        208562
#        223498
#        238008
#        254324
#
# Disc length: 3576 seconds
#
# Revision: 0
# Processed by: cddbd v1.5.2PL0 Copyright (c) Steve Scherf et al.
# Submitted via: ExactAudioCopyFreeDBPlugin 1.0
#
DISCID=080df611
DTITLE=Luke Combs - This One's For You Too
DYEAR=2018
DGENRE=Country
TTITLE0=Out There
TTITLE1=Memories Are Made Of
TTITLE2=Lonely One
TTITLE3=Beer Can
TTITLE4=Hurricane
TTITLE5=One Number Away
TTITLE6=Don't Tempt Me
TTITLE7=When It Rains It Pours
TTITLE8=This One's For You
TTITLE9=Be Careful What You Wish For
TTITLE10=I Got Away With You
TTITLE11=Honky Tonk Highway
TTITLE12=Houston, We Got A Problem
TTITLE13=Must've Never Met You
TTITLE14=Beautiful Crazy
TTITLE15=A Long Way
TTITLE16=She Got The Best Of Me
EXTD=
EXTT0=
EXTT1=
EXTT2=
EXTT3=
EXTT4=
EXTT5=
EXTT6=
EXTT7=
EXTT8=
EXTT9=
EXTT10=
EXTT11=
EXTT12=
EXTT13=
EXTT14=
EXTT15=
EXTT16=
PLAYORDER=
